M48
;GenerationSoftware,Autodesk,EAGLE,9.6.2*%
;CreationDate,2021-03-25T06:12:31Z*%
FMAT,2
ICI,OFF
METRIC,TZ,000.000
T5C0.400
T4C0.813
T3C0.914
T2C1.016
T1C2.794
%
G90
M71
T1
X93980Y2794
X5080Y2794
X93980Y2794
X5080Y2794
T2
X6370Y63600
X3870Y63600
X8870Y63600
X11370Y63600
T3
X92710Y13843
X92710Y16383
X90170Y13843
X90170Y16383
X87630Y13843
X87630Y16383
X50800Y10414
X88900Y5334
X86360Y5334
X83820Y5334
X81280Y5334
X78740Y5334
X76200Y5334
X73660Y5334
X71120Y5334
X68580Y5334
X66040Y5334
X63500Y5334
X60960Y5334
X58420Y5334
X55880Y5334
X53340Y5334
X50800Y5334
X48260Y5334
X45720Y5334
X43180Y5334
X40640Y5334
X38100Y5334
X35560Y5334
X33020Y5334
X30480Y5334
X27940Y5334
X25400Y5334
X22860Y5334
X20320Y5334
X17780Y5334
X15240Y5334
X12700Y5334
X10160Y5334
X88900Y10414
X86360Y10414
X83820Y10414
X81280Y10414
X78740Y10414
X76200Y10414
X73660Y10414
X71120Y10414
X68580Y10414
X66040Y10414
X63500Y10414
X60960Y10414
X58420Y10414
X55880Y10414
X53340Y10414
X48260Y10414
X45720Y10414
X43180Y10414
X40640Y10414
X38100Y10414
X35560Y10414
X33020Y10414
X30480Y10414
X27940Y10414
X25400Y10414
X22860Y10414
X20320Y10414
X17780Y10414
X15240Y10414
X12700Y10414
X10160Y10414
X10160Y7874
X88900Y7874
X86360Y7874
X83820Y7874
X81280Y7874
X78740Y7874
X76200Y7874
X73660Y7874
X71120Y7874
X68580Y7874
X66040Y7874
X63500Y7874
X60960Y7874
X58420Y7874
X55880Y7874
X53340Y7874
X50800Y7874
X48260Y7874
X45720Y7874
X43180Y7874
X40640Y7874
X38100Y7874
X35560Y7874
X33020Y7874
X30480Y7874
X27940Y7874
X25400Y7874
X22860Y7874
X20320Y7874
X17780Y7874
X15240Y7874
X12700Y7874
T4
X35560Y46990
X35560Y49530
X35560Y52070
X35560Y54610
X35560Y57150
X35560Y59690
X45720Y41910
X38100Y41910
X40640Y41910
X43180Y41910
X48260Y41910
X50800Y41910
X53340Y41910
X53340Y44450
X38100Y44450
X38100Y59690
X53340Y59690
X53340Y57150
X48260Y44450
X38100Y57150
X48260Y59690
X25400Y49530
X22860Y49530
X25400Y52070
X22860Y52070
X25400Y54610
X22860Y54610
X25400Y57150
X22860Y57150
X25400Y59690
X7620Y59690
X22860Y59690
X20320Y59690
X20320Y57150
X7620Y54610
X20320Y54610
X17780Y59690
X17780Y57150
X15240Y59690
X15240Y57150
X12700Y59690
X12700Y57150
X10160Y59690
X10160Y57150
X25400Y36830
X7620Y57150
X5080Y36830
X2540Y59690
X5080Y59690
X2540Y57150
X5080Y57150
X2540Y54610
X5080Y54610
X2540Y52070
X5080Y52070
X2540Y49530
X5080Y49530
X2540Y46990
X5080Y46990
X2540Y44450
X5080Y44450
X2540Y41910
X5080Y41910
X2540Y39370
X2540Y36830
X5080Y39370
X7620Y36830
X7620Y39370
X10160Y36830
X10160Y39370
X12700Y36830
X12700Y39370
X15240Y36830
X15240Y39370
X17780Y36830
X17780Y39370
X7620Y41910
X20320Y41910
X20320Y36830
X20320Y39370
X22860Y36830
X25400Y39370
X22860Y39370
X25400Y41910
X22860Y41910
X25400Y44450
X22860Y44450
X25400Y46990
X22860Y46990
X81280Y67310
X53340Y39370
X78740Y67310
X78740Y64770
X76200Y67310
X76200Y64770
X73660Y67310
X73660Y64770
X71120Y67310
X71120Y64770
X68580Y67310
X66040Y64770
X68580Y64770
X66040Y62230
X68580Y62230
X66040Y59690
X68580Y59690
X66040Y57150
X68580Y57150
X66040Y54610
X68580Y54610
X66040Y52070
X68580Y52070
X66040Y49530
X68580Y49530
X66040Y46990
X68580Y46990
X66040Y44450
X68580Y44450
X66040Y41910
X66040Y39370
X68580Y41910
X68580Y36830
X68580Y39370
X71120Y39370
X71120Y36830
X73660Y39370
X73660Y36830
X76200Y39370
X76200Y36830
X78740Y36830
X78740Y39370
X81280Y36830
X81280Y39370
X83820Y36830
X83820Y39370
X86360Y36830
X86360Y39370
X88900Y39370
X88900Y36830
X91440Y39370
X91440Y36830
X93980Y36830
X93980Y64770
X96520Y64770
X93980Y62230
X96520Y62230
X93980Y59690
X96520Y59690
X93980Y57150
X96520Y57150
X93980Y54610
X96520Y54610
X93980Y52070
X96520Y52070
X93980Y49530
X96520Y49530
X93980Y46990
X96520Y46990
X93980Y44450
X96520Y44450
X93980Y41910
X93980Y39370
X96520Y41910
X96520Y39370
X86360Y64770
X86360Y67310
X88900Y64770
X88900Y67310
X91440Y64770
X91440Y67310
X93980Y67310
X83820Y67310
X83820Y64770
X87630Y29210
X87630Y21590
X95250Y21590
X95250Y29210
X81280Y64770
X60960Y67310
X60960Y64770
X60960Y62230
X19050Y67310
X19050Y64770
X60960Y59690
X60960Y57150
X60960Y54610
X60960Y52070
X60960Y49530
X60960Y46990
X60960Y44450
X60960Y41910
X60960Y39370
X60960Y36830
X58420Y36830
X33020Y67310
X35560Y67310
X38100Y67310
X40640Y67310
X43180Y67310
X45720Y67310
X48260Y67310
X50800Y67310
X53340Y67310
X58420Y67310
X58420Y64770
X58420Y62230
X58420Y59690
X58420Y57150
X58420Y54610
X58420Y52070
X58420Y49530
X58420Y46990
X58420Y44450
X58420Y41910
X58420Y39370
X53340Y36830
X50800Y36830
X48260Y36830
X45720Y36830
X43180Y36830
X40640Y36830
X38100Y36830
X35560Y36830
X33020Y36830
X33020Y64770
X35560Y64770
X38100Y64770
X40640Y64770
X43180Y64770
X45720Y64770
X48260Y64770
X50800Y64770
X53340Y64770
X30480Y64770
X30480Y36830
X30480Y39370
X30480Y41910
X30480Y44450
X96774Y16383
X30480Y46990
X30480Y49530
X30480Y52070
X30480Y54610
X30480Y57150
X30480Y59690
X30480Y62230
X55880Y36830
X55880Y67310
X55880Y39370
X55880Y41910
X55880Y44450
X55880Y46990
X55880Y49530
X55880Y52070
X55880Y54610
X55880Y57150
X55880Y59690
X55880Y62230
X55880Y64770
X30480Y67310
X33020Y62230
X35560Y62230
X38100Y62230
X40640Y62230
X43180Y62230
X45720Y62230
X48260Y62230
X50800Y62230
X53340Y62230
X33020Y39370
X35560Y39370
X38100Y39370
X40640Y39370
X43180Y39370
X45720Y39370
X48260Y39370
X50800Y39370
X33020Y59690
X33020Y57150
X33020Y54610
X33020Y52070
X33020Y49530
X33020Y46990
X33020Y44450
X33020Y41910
X35560Y41910
X35560Y44450
X96774Y13843
T5
X11430Y53975
X40640Y55880
X43180Y52832
X48260Y57150
X48260Y52832
X48260Y46990
X40640Y47371
X43180Y47371
X43180Y40640
X44450Y59436
X34798Y60960
X52578Y58420
X46990Y59309
X57150Y54991
X59690Y54991
X62738Y50292
X66548Y50800
X71120Y51054
X62230Y48260
X59690Y46990
X57150Y44450
X71120Y34036
X71120Y35052
X60833Y29591
X66675Y29845
X68453Y29845
X72517Y29464
X81407Y29591
X83947Y29591
X81534Y26670
X76200Y25654
X81534Y22860
X76200Y22352
X67056Y21590
X71374Y21590
X71374Y19050
X75946Y18542
X75184Y14986
X71374Y14986
X73152Y14986
X68834Y14986
X65024Y19812
X65786Y18542
X62230Y13716
X61468Y12954
X64008Y12192
X63246Y11684
X58166Y16002
X57150Y14986
X52578Y14986
X52324Y19304
X49784Y26416
X48514Y21082
X48768Y22860
X48387Y24130
X54610Y24130
X53721Y22860
X44704Y14224
X44704Y12700
X42418Y13462
X39624Y13716
X41656Y15748
X38354Y17018
X37338Y16002
X33020Y16002
X34798Y11684
X31242Y14224
X34290Y9144
X34290Y7620
X28702Y9144
X24638Y14478
X26670Y16764
X28448Y17145
X29972Y30607
X27940Y31496
X31750Y30607
X36576Y29972
X25908Y35306
X18034Y30480
X10160Y30480
X9144Y34544
X6858Y35306
X16764Y37592
X19050Y36322
X19050Y39116
X21336Y40640
X18288Y40894
X18669Y43434
X16891Y42926
X21590Y46736
X9398Y46990
X10668Y48260
X8636Y51054
X6604Y51181
X7112Y49149
X3810Y49911
X1524Y50419
X762Y49403
X762Y51181
X76200Y27178
X8890Y54229
X16510Y53721
X17780Y55753
X21336Y56515
X11430Y59309
X8890Y59309
X6350Y60579
X13716Y64643
X8890Y57785
X6350Y57785
X6350Y53975
X2032Y16256
X16510Y16002
X14478Y17018
X98044Y10668
X96520Y10668
X94996Y10668
X87630Y20066
X87630Y23114
X91948Y33528
X95758Y33528
X96774Y25654
X90678Y25654
X90424Y40640
X94996Y40640
X89916Y44196
X85852Y44196
X85852Y40894
X95250Y46736
X95250Y50546
X78740Y40894
X78740Y43688
X78740Y45212
X83820Y43434
X83820Y41148
X83820Y44450
X83820Y47625
X81280Y47625
X78486Y47625
X86106Y47625
X91440Y47625
X91440Y48895
X86106Y48895
X83820Y48895
X81280Y48895
X78486Y48895
X73660Y45720
X73660Y47244
X70612Y41148
X67564Y38100
X70866Y54610
X73914Y54610
X78486Y54610
X78486Y51054
X81280Y50800
X83820Y50800
X81280Y54610
X83820Y54610
X86106Y50800
X91440Y50800
X86106Y54610
X89662Y54610
X95250Y53848
X86360Y57912
X78740Y57658
X76708Y57658
X73914Y57150
X70866Y57150
X69596Y58928
X76200Y66040
X75311Y66548
X81153Y57658
X81661Y62738
X80645Y62992
X83693Y57404
X85725Y62484
X87757Y63246
X90170Y63246
X90170Y66040
X98298Y68834
X96266Y67310
X95250Y63754
X24130Y63500
X26670Y66167
X26670Y67437
X29210Y67691
X29210Y65913
X24130Y66167
X24130Y67437
X21590Y63119
X20828Y65532
X20828Y67564
X14732Y69088
X14732Y67564
X13970Y59436
X15494Y62357
X16510Y62357
X13970Y60452
X5080Y55880
X39624Y53340
X39624Y52324
X38100Y50800
X39116Y48768
X39116Y45974
X54864Y48768
X51816Y51816
X49911Y29210
X48387Y30099
X42545Y30099
X50800Y26416
X50800Y25400
X59055Y30099
X57658Y29718
X69088Y38100
X71120Y38100
X64262Y25781
X81788Y35306
X81788Y34036
X83820Y35306
X83820Y34036
X85598Y35306
X87122Y33528
X88138Y34544
X89916Y34544
X88392Y32512
X81788Y30988
X76073Y29337
X75692Y30988
X73406Y34036
X28702Y32131
X11430Y30480
X8128Y27432
X10414Y27686
X13970Y27686
X12192Y28448
X44450Y56896
X46990Y57150
X49530Y57150
X43180Y54864
X48260Y54864
X45720Y52832
X45720Y54864
X50800Y54864
X50292Y52832
X65278Y29718
X68326Y26035
X65532Y36322
X68580Y35560
X59055Y26924
X78994Y35560
X84074Y16256
X84074Y11938
X82804Y12446
X34290Y57658
X28956Y59436
X27432Y59436
X26670Y54356
X28702Y54356
X28829Y43815
X41910Y36449
X41910Y37211
X41910Y38989
X34036Y53594
X75057Y32893
X71120Y31115
X52324Y61468
X62738Y62230
X67310Y61976
X63500Y54483
X61976Y52959
X59690Y51943
X63373Y41529
X46990Y49530
X44450Y49530
X41910Y49530
X63373Y42799
X62103Y42799
X64770Y48260
X21844Y48514
X29210Y47752
X24003Y51054
X28702Y51435
X19939Y43180
X68580Y28448
X57531Y28702
X43180Y29464
X81534Y28448
X73533Y29210
X78740Y62992
X27686Y36576
X72644Y59690
X34290Y52070
X36576Y51054
X34036Y48895
X31750Y49276
X34798Y46101
X32131Y43561
X28829Y39370
X36068Y40640
X33528Y38100
X31369Y37592
X29464Y38735
X39370Y61976
X75819Y63627
X74930Y63881
X74930Y64770
X20320Y64135
X64008Y34671
X63754Y38100
X63373Y35941
X63119Y40640
X62484Y41402
X61468Y35433
X54102Y42926
X51308Y29337
X55880Y29464
X50546Y30099
X54483Y29972
X62230Y44196
X52451Y32893
X59690Y32893
X58801Y32893
X53340Y32893
X21209Y26035
X21209Y35433
X21717Y24765
X21844Y36068
X22225Y23495
X22479Y34798
X25019Y22225
X25146Y34036
X24638Y20955
X23876Y35052
X24003Y19685
X23876Y33274
X34036Y56388
X23622Y18415
X23495Y32258
X5334Y33528
X23114Y17018
X23114Y33655
X2921Y26162
X5207Y26162
X28194Y57912
X2794Y23622
X4826Y23622
X2286Y22352
X4826Y22352
X4572Y19812
X4572Y18542
X49149Y62992
X87630Y60960
X23876Y40005
X47244Y40132
X30480Y16256
X29464Y16256
X28448Y16256
X27686Y14986
X27686Y30226
X82042Y32766
X25908Y32512
X23114Y14478
X87630Y11684
X81280Y45466
X77470Y46228
X76708Y46990
X75184Y52070
X82804Y11430
X76708Y12192
X75692Y49530
X76962Y13208
X76200Y48260
X81026Y12192
X79502Y12700
X18034Y27305
X18034Y26035
X18034Y24765
X18034Y23495
X18034Y22225
X18034Y20955
X18034Y19685
X18034Y18415
X27559Y62992
X39370Y36576
X37084Y31496
X71628Y30353
X28321Y62611
X26543Y57531
X36576Y57912
X63881Y39116
X46990Y67056
X67564Y28194
X26670Y27305
X26670Y33528
X37592Y27305
X38608Y33528
X68326Y27432
X55118Y27178
X41656Y27940
M30