G04 EAGLE Gerber RS-274X export*
G75*
%MOMM*%
%FSLAX34Y34*%
%LPD*%
%INSoldermask Bottom*%
%IPPOS*%
%AMOC8*
5,1,8,0,0,1.08239X$1,22.5*%
G01*
%ADD10C,1.422400*%
%ADD11R,2.133600X0.762000*%
%ADD12R,1.601600X1.401600*%
%ADD13C,1.625600*%
%ADD14C,1.701800*%
%ADD15C,1.524000*%
%ADD16C,5.181600*%
%ADD17C,2.895600*%
%ADD18R,1.401600X1.601600*%


D10*
X609600Y673100D03*
X609600Y647700D03*
X609600Y622300D03*
X609600Y596900D03*
X609600Y571500D03*
X609600Y546100D03*
X609600Y520700D03*
X609600Y495300D03*
X609600Y469900D03*
X609600Y444500D03*
X609600Y419100D03*
X609600Y393700D03*
X609600Y368300D03*
X584200Y368300D03*
X330200Y673100D03*
X355600Y673100D03*
X381000Y673100D03*
X406400Y673100D03*
X431800Y673100D03*
X457200Y673100D03*
X482600Y673100D03*
X508000Y673100D03*
X533400Y673100D03*
X584200Y673100D03*
X584200Y647700D03*
X584200Y622300D03*
X584200Y596900D03*
X584200Y571500D03*
X584200Y546100D03*
X584200Y520700D03*
X584200Y495300D03*
X584200Y469900D03*
X584200Y444500D03*
X584200Y419100D03*
X584200Y393700D03*
X533400Y368300D03*
X508000Y368300D03*
X482600Y368300D03*
X457200Y368300D03*
X431800Y368300D03*
X406400Y368300D03*
X381000Y368300D03*
X355600Y368300D03*
X330200Y368300D03*
X330200Y647700D03*
X355600Y647700D03*
X381000Y647700D03*
X406400Y647700D03*
X431800Y647700D03*
X457200Y647700D03*
X482600Y647700D03*
X508000Y647700D03*
X533400Y647700D03*
X304800Y647700D03*
X304800Y368300D03*
X304800Y393700D03*
X304800Y419100D03*
X304800Y444500D03*
X304800Y469900D03*
X304800Y495300D03*
X304800Y520700D03*
X304800Y546100D03*
X304800Y571500D03*
X304800Y596900D03*
X304800Y622300D03*
X558800Y368300D03*
X558800Y673100D03*
X558800Y393700D03*
X558800Y419100D03*
X558800Y444500D03*
X558800Y469900D03*
X558800Y495300D03*
X558800Y520700D03*
X558800Y546100D03*
X558800Y571500D03*
X558800Y596900D03*
X558800Y622300D03*
X558800Y647700D03*
X304800Y673100D03*
X330200Y622300D03*
X355600Y622300D03*
X381000Y622300D03*
X406400Y622300D03*
X431800Y622300D03*
X457200Y622300D03*
X482600Y622300D03*
X508000Y622300D03*
X533400Y622300D03*
X330200Y393700D03*
X355600Y393700D03*
X381000Y393700D03*
X406400Y393700D03*
X431800Y393700D03*
X457200Y393700D03*
X482600Y393700D03*
X508000Y393700D03*
X533400Y393700D03*
X330200Y596900D03*
X330200Y571500D03*
X330200Y546100D03*
X330200Y520700D03*
X330200Y495300D03*
X330200Y469900D03*
X330200Y444500D03*
X330200Y419100D03*
X355600Y419100D03*
X355600Y444500D03*
X355600Y469900D03*
X355600Y495300D03*
X355600Y520700D03*
X355600Y546100D03*
X355600Y571500D03*
X355600Y596900D03*
X457200Y419100D03*
X381000Y419100D03*
X406400Y419100D03*
X431800Y419100D03*
X482600Y419100D03*
X508000Y419100D03*
X533400Y419100D03*
X533400Y444500D03*
X381000Y444500D03*
X381000Y596900D03*
X533400Y596900D03*
X533400Y571500D03*
X482600Y444500D03*
X381000Y571500D03*
X482600Y596900D03*
D11*
X164592Y285750D03*
X164592Y273050D03*
X164592Y260350D03*
X164592Y247650D03*
X164592Y234950D03*
X164592Y222250D03*
X164592Y209550D03*
X164592Y196850D03*
X64008Y196850D03*
X64008Y209550D03*
X64008Y222250D03*
X64008Y234950D03*
X64008Y247650D03*
X64008Y260350D03*
X64008Y273050D03*
X64008Y285750D03*
X164592Y184150D03*
X164592Y171450D03*
X64008Y184150D03*
X64008Y171450D03*
X297942Y285750D03*
X297942Y273050D03*
X297942Y260350D03*
X297942Y247650D03*
X297942Y234950D03*
X297942Y222250D03*
X297942Y209550D03*
X297942Y196850D03*
X197358Y196850D03*
X197358Y209550D03*
X197358Y222250D03*
X197358Y234950D03*
X197358Y247650D03*
X197358Y260350D03*
X197358Y273050D03*
X197358Y285750D03*
X297942Y184150D03*
X297942Y171450D03*
X197358Y184150D03*
X197358Y171450D03*
X431292Y285750D03*
X431292Y273050D03*
X431292Y260350D03*
X431292Y247650D03*
X431292Y234950D03*
X431292Y222250D03*
X431292Y209550D03*
X431292Y196850D03*
X330708Y196850D03*
X330708Y209550D03*
X330708Y222250D03*
X330708Y234950D03*
X330708Y247650D03*
X330708Y260350D03*
X330708Y273050D03*
X330708Y285750D03*
X431292Y184150D03*
X431292Y171450D03*
X330708Y184150D03*
X330708Y171450D03*
D10*
X254000Y495300D03*
X228600Y495300D03*
X254000Y520700D03*
X228600Y520700D03*
X254000Y546100D03*
X228600Y546100D03*
X254000Y571500D03*
X228600Y571500D03*
X254000Y596900D03*
X76200Y596900D03*
X228600Y596900D03*
X203200Y596900D03*
X203200Y571500D03*
X76200Y546100D03*
X203200Y546100D03*
X177800Y596900D03*
X177800Y571500D03*
X152400Y596900D03*
X152400Y571500D03*
X127000Y596900D03*
X127000Y571500D03*
X101600Y596900D03*
X101600Y571500D03*
X254000Y368300D03*
X76200Y571500D03*
X50800Y368300D03*
X25400Y596900D03*
X50800Y596900D03*
X25400Y571500D03*
X50800Y571500D03*
X25400Y546100D03*
X50800Y546100D03*
X25400Y520700D03*
X50800Y520700D03*
X25400Y495300D03*
X50800Y495300D03*
X25400Y469900D03*
X50800Y469900D03*
X25400Y444500D03*
X50800Y444500D03*
X25400Y419100D03*
X50800Y419100D03*
X25400Y393700D03*
X25400Y368300D03*
X50800Y393700D03*
X76200Y368300D03*
X76200Y393700D03*
X101600Y368300D03*
X101600Y393700D03*
X127000Y368300D03*
X127000Y393700D03*
X152400Y368300D03*
X152400Y393700D03*
X177800Y368300D03*
X177800Y393700D03*
X76200Y419100D03*
X203200Y419100D03*
X203200Y368300D03*
X203200Y393700D03*
X228600Y368300D03*
X254000Y393700D03*
X228600Y393700D03*
X254000Y419100D03*
X228600Y419100D03*
X254000Y444500D03*
X228600Y444500D03*
X254000Y469900D03*
X228600Y469900D03*
X812800Y673100D03*
X812800Y647700D03*
X787400Y673100D03*
X787400Y647700D03*
X762000Y673100D03*
X762000Y647700D03*
X736600Y673100D03*
X736600Y647700D03*
X711200Y673100D03*
X711200Y647700D03*
X685800Y673100D03*
X660400Y647700D03*
X685800Y647700D03*
X660400Y622300D03*
X685800Y622300D03*
X660400Y596900D03*
X685800Y596900D03*
X660400Y571500D03*
X685800Y571500D03*
X660400Y546100D03*
X685800Y546100D03*
X660400Y520700D03*
X685800Y520700D03*
X660400Y495300D03*
X685800Y495300D03*
X660400Y469900D03*
X685800Y469900D03*
X660400Y444500D03*
X685800Y444500D03*
X660400Y419100D03*
X660400Y393700D03*
X685800Y419100D03*
X685800Y368300D03*
X685800Y393700D03*
X711200Y393700D03*
X711200Y368300D03*
X736600Y393700D03*
X736600Y368300D03*
X762000Y393700D03*
X762000Y368300D03*
X787400Y368300D03*
X787400Y393700D03*
X812800Y368300D03*
X812800Y393700D03*
X838200Y368300D03*
X838200Y393700D03*
X863600Y368300D03*
X863600Y393700D03*
X889000Y393700D03*
X889000Y368300D03*
X914400Y393700D03*
X914400Y368300D03*
X939800Y368300D03*
X939800Y647700D03*
X965200Y647700D03*
X939800Y622300D03*
X965200Y622300D03*
X939800Y596900D03*
X965200Y596900D03*
X939800Y571500D03*
X965200Y571500D03*
X939800Y546100D03*
X965200Y546100D03*
X939800Y520700D03*
X965200Y520700D03*
X939800Y495300D03*
X965200Y495300D03*
X939800Y469900D03*
X965200Y469900D03*
X939800Y444500D03*
X965200Y444500D03*
X939800Y419100D03*
X939800Y393700D03*
X965200Y419100D03*
X965200Y393700D03*
X863600Y647700D03*
X863600Y673100D03*
X889000Y647700D03*
X889000Y673100D03*
X914400Y647700D03*
X914400Y673100D03*
X939800Y673100D03*
X838200Y673100D03*
X838200Y647700D03*
X876300Y292100D03*
X876300Y215900D03*
X952500Y215900D03*
X952500Y292100D03*
D12*
X533400Y542900D03*
X533400Y523900D03*
X508000Y593700D03*
X508000Y574700D03*
X533400Y473100D03*
X533400Y492100D03*
X457200Y593700D03*
X457200Y574700D03*
X457200Y447700D03*
X457200Y466700D03*
X431800Y593700D03*
X431800Y574700D03*
X431800Y447700D03*
X431800Y466700D03*
X406400Y593700D03*
X406400Y574700D03*
X406400Y447700D03*
X406400Y466700D03*
X381000Y542900D03*
X381000Y523900D03*
X254000Y612800D03*
X254000Y631800D03*
X228600Y612800D03*
X228600Y631800D03*
X203200Y447700D03*
X203200Y466700D03*
X152400Y555600D03*
X152400Y536600D03*
X152400Y409600D03*
X152400Y428600D03*
X76200Y435000D03*
X76200Y454000D03*
X76200Y530200D03*
X76200Y511200D03*
X254000Y669900D03*
X254000Y650900D03*
X508000Y485800D03*
X508000Y504800D03*
X889000Y600100D03*
X889000Y619100D03*
X838200Y619100D03*
X838200Y600100D03*
X762000Y600100D03*
X762000Y619100D03*
X279400Y669900D03*
X279400Y650900D03*
X736600Y600100D03*
X736600Y619100D03*
X228600Y669900D03*
X228600Y650900D03*
X406400Y485800D03*
X406400Y504800D03*
X508000Y447700D03*
X508000Y466700D03*
X101600Y511200D03*
X101600Y530200D03*
X127000Y511200D03*
X127000Y530200D03*
X431800Y485800D03*
X431800Y504800D03*
X457200Y485800D03*
X457200Y504800D03*
X482600Y485800D03*
X482600Y504800D03*
X203200Y517500D03*
X203200Y498500D03*
X914400Y568300D03*
X914400Y549300D03*
X812800Y422300D03*
X812800Y441300D03*
X914400Y422300D03*
X914400Y441300D03*
X736600Y422300D03*
X736600Y441300D03*
X711200Y473100D03*
X711200Y492100D03*
X711200Y619100D03*
X711200Y600100D03*
X787400Y619100D03*
X787400Y600100D03*
X914400Y619100D03*
X914400Y600100D03*
X952500Y263500D03*
X952500Y244500D03*
D13*
X63700Y636000D03*
X38700Y636000D03*
X88700Y636000D03*
X113700Y636000D03*
D14*
X190500Y673100D03*
X190500Y647700D03*
D15*
X927100Y138430D03*
X927100Y163830D03*
X901700Y138430D03*
X901700Y163830D03*
X876300Y138430D03*
X876300Y163830D03*
D14*
X967740Y138430D03*
X967740Y163830D03*
D16*
X939800Y27940D03*
D15*
X889000Y53340D03*
X863600Y53340D03*
X838200Y53340D03*
X812800Y53340D03*
X787400Y53340D03*
X762000Y53340D03*
X736600Y53340D03*
X711200Y53340D03*
X685800Y53340D03*
X660400Y53340D03*
X635000Y53340D03*
X609600Y53340D03*
X584200Y53340D03*
X558800Y53340D03*
X533400Y53340D03*
X508000Y53340D03*
X482600Y53340D03*
X457200Y53340D03*
X431800Y53340D03*
X406400Y53340D03*
X381000Y53340D03*
X355600Y53340D03*
X330200Y53340D03*
X304800Y53340D03*
X279400Y53340D03*
X254000Y53340D03*
X228600Y53340D03*
X203200Y53340D03*
X177800Y53340D03*
X152400Y53340D03*
X127000Y53340D03*
X101600Y53340D03*
X889000Y104140D03*
X863600Y104140D03*
X838200Y104140D03*
X812800Y104140D03*
X787400Y104140D03*
X762000Y104140D03*
X736600Y104140D03*
X711200Y104140D03*
X685800Y104140D03*
X660400Y104140D03*
X635000Y104140D03*
X609600Y104140D03*
X584200Y104140D03*
X558800Y104140D03*
X533400Y104140D03*
X508000Y104140D03*
X482600Y104140D03*
X457200Y104140D03*
X431800Y104140D03*
X406400Y104140D03*
X381000Y104140D03*
X355600Y104140D03*
X330200Y104140D03*
X304800Y104140D03*
X279400Y104140D03*
X254000Y104140D03*
X228600Y104140D03*
X203200Y104140D03*
X177800Y104140D03*
X152400Y104140D03*
X127000Y104140D03*
X101600Y104140D03*
D16*
X50800Y27940D03*
D15*
X889000Y78740D03*
X863600Y78740D03*
X838200Y78740D03*
X812800Y78740D03*
X787400Y78740D03*
X762000Y78740D03*
X736600Y78740D03*
X711200Y78740D03*
X685800Y78740D03*
X660400Y78740D03*
X635000Y78740D03*
X609600Y78740D03*
X584200Y78740D03*
X558800Y78740D03*
X533400Y78740D03*
X508000Y78740D03*
X482600Y78740D03*
X457200Y78740D03*
X431800Y78740D03*
X406400Y78740D03*
X381000Y78740D03*
X355600Y78740D03*
X330200Y78740D03*
X304800Y78740D03*
X279400Y78740D03*
X254000Y78740D03*
X228600Y78740D03*
X203200Y78740D03*
X177800Y78740D03*
X152400Y78740D03*
X127000Y78740D03*
X101600Y78740D03*
D17*
X939800Y27940D03*
X50800Y27940D03*
D18*
X66700Y304800D03*
X85700Y304800D03*
X200050Y304800D03*
X219050Y304800D03*
X333400Y304800D03*
X352400Y304800D03*
M02*
